<?xml version="1.0" encoding="utf-8"?>
<!-- Generator: Adobe Illustrator 16.2.0, SVG Export Plug-In . SVG Version: 6.00 Build 0)  -->
<!DOCTYPE svg PUBLIC "-//W3C//DTD SVG 1.1//EN" "http://www.w3.org/Graphics/SVG/1.1/DTD/svg11.dtd">
<svg version="1.1" id="Слой_1" xmlns="http://www.w3.org/2000/svg" xmlns:xlink="http://www.w3.org/1999/xlink" x="0px" y="0px"
	 width="26px" height="20px" viewBox="0 0 26 20" enable-background="new 0 0 26 20" xml:space="preserve">
<path fill="#FF0000" d="M12.594,9.625c-0.743-0.784-1.205-1.836-1.205-3.001c0-0.428,0.081-0.833,0.195-1.223
	c-0.705-0.486-1.557-0.773-2.478-0.773c-2.416,0-4.374,1.958-4.374,4.374c0,2.417,1.958,4.375,4.374,4.375
	c0.476,0,0.926-0.095,1.355-0.236C10.543,11.639,11.374,10.349,12.594,9.625z"/>
<path fill="#0000FF" d="M15.764,10.998c-0.921,0-1.773-0.287-2.478-0.773c-0.405,1.382-1.462,2.469-2.824,2.915
	c-0.004,0.08-0.024,0.155-0.024,0.236c0,2.416,1.958,4.374,4.375,4.374s4.374-1.958,4.374-4.374c0-1.165-0.463-2.218-1.205-3.001
	C17.329,10.762,16.577,10.998,15.764,10.998z"/>
<path fill="#FF00FF" d="M13.286,10.225c-0.253-0.174-0.481-0.377-0.692-0.6c-1.221,0.724-2.051,2.014-2.132,3.515
	C11.824,12.693,12.881,11.606,13.286,10.225z"/>
<path fill="#00FF00" d="M13.48,9.001c0,0.081-0.02,0.156-0.024,0.236c0.43-0.141,0.88-0.236,1.356-0.236
	c1.251,0,2.372,0.532,3.169,1.373c1.285-0.762,2.156-2.148,2.156-3.75c0-2.416-1.959-4.374-4.374-4.374
	c-1.989,0-3.648,1.335-4.18,3.151C12.728,6.189,13.48,7.506,13.48,9.001z"/>
<path fill="#FFFF00" d="M12.594,9.625c0.271-0.16,0.559-0.288,0.862-0.388c0.005-0.08,0.024-0.155,0.024-0.236
	c0-1.495-0.752-2.812-1.896-3.601c-0.114,0.391-0.195,0.795-0.195,1.223C11.389,7.789,11.852,8.841,12.594,9.625z"/>
<path fill="#00FFFF" d="M14.813,9.001c-0.477,0-0.927,0.095-1.356,0.236c-0.018,0.342-0.078,0.671-0.17,0.987
	c0.704,0.486,1.557,0.773,2.478,0.773c0.813,0,1.565-0.236,2.218-0.624C17.185,9.533,16.063,9.001,14.813,9.001z"/>
<path fill="#FFFFFF" d="M12.594,9.625c0.21,0.222,0.439,0.426,0.692,0.6c0.092-0.316,0.152-0.645,0.17-0.987
	C13.153,9.337,12.865,9.465,12.594,9.625z"/>
</svg>
