<?xml version="1.0" encoding="utf-8"?>
<!-- Generator: Adobe Illustrator 16.2.0, SVG Export Plug-In . SVG Version: 6.00 Build 0)  -->
<!DOCTYPE svg PUBLIC "-//W3C//DTD SVG 1.1//EN" "http://www.w3.org/Graphics/SVG/1.1/DTD/svg11.dtd">
<svg version="1.1" id="Слой_1" xmlns="http://www.w3.org/2000/svg" xmlns:xlink="http://www.w3.org/1999/xlink" x="0px" y="0px"
	 width="26px" height="20px" viewBox="0 0 26 20" enable-background="new 0 0 26 20" xml:space="preserve">
<g>
	<g>
		<polyline fill="none" stroke="#000000" stroke-width="0.7" stroke-miterlimit="10" points="8.486,7.408 9.853,9.039 9.853,17.809 
			16.44,17.809 16.44,9.039 17.807,7.408 		"/>
		<line fill="none" stroke="#000000" stroke-width="0.7" stroke-miterlimit="10" x1="9.853" y1="9.039" x2="16.44" y2="9.039"/>
		<polyline fill="none" stroke="#000000" stroke-width="0.7" stroke-miterlimit="10" points="10.19,7.408 11.057,9.039 
			11.057,17.809 15.236,17.809 15.236,9.039 16.103,7.408 		"/>
		<polyline fill="none" stroke="#000000" stroke-width="0.7" stroke-miterlimit="10" points="12.116,7.408 12.418,9.039 
			12.418,17.809 13.875,17.809 13.875,9.039 14.177,7.408 		"/>
	</g>
	<g>
		<path fill="none" stroke="#000000" stroke-width="0.7" stroke-miterlimit="10" d="M13.586,4.348c0,0,1.019-1.428,1.37-2.782
			l3.246,0.997c-0.735,2.35-1.945,3.984-2.731,3.642c-0.855-0.371-0.537-1.222-0.537-1.222l-2.626-0.961
			c0,0-0.761,0.576,0.751,1.254c0.705,0.315,2.412,0.93,2.412,0.93"/>
	</g>
</g>
</svg>
